<svg width="16" height="15" viewBox="0 0 16 15" fill="none" xmlns="http://www.w3.org/2000/svg">
<path d="M9.95184 4.05376L2.63445 11.3711L2.15597 13.0034L3.75497 12.5411L11.0967 5.19938L9.95184 4.05376ZM11.2003 2.80532L12.3451 3.95013L13.4122 2.88305C13.4881 2.80713 13.5307 2.70418 13.5307 2.59684C13.5307 2.4895 13.4881 2.38655 13.4122 2.31064L12.839 1.73824C12.763 1.66235 12.6601 1.61971 12.5528 1.61971C12.4454 1.61971 12.3425 1.66235 12.2666 1.73824L11.2011 2.80532H11.2003ZM13.9846 0.593427L14.557 1.16583C14.9364 1.5454 15.1496 2.06013 15.1496 2.59684C15.1496 3.13355 14.9364 3.64829 14.557 4.02785L4.60508 13.9806L1.18847 14.9683C1.0492 15.0085 0.90171 15.0105 0.761392 14.9742C0.621073 14.9379 0.493072 14.8646 0.390751 14.7619C0.28843 14.6593 0.215542 14.5311 0.179694 14.3906C0.143847 14.2502 0.146356 14.1027 0.18696 13.9636L1.19737 10.5186L11.1234 0.592618C11.5029 0.213165 12.0177 0 12.5544 0C13.0911 0 13.6058 0.213165 13.9854 0.592618L13.9846 0.593427Z" fill="#53B175"/>
</svg>
