<svg width="35" height="19" viewBox="0 0 35 19" fill="none" xmlns="http://www.w3.org/2000/svg">
<rect x="0.435669" y="0.360596" width="33.615" height="18" rx="5" fill="#EBEBEB"/>
<path d="M5.35992 6.6456L7.01592 6.0606H7.91592V12.3606H6.88092V7.1676L5.61192 7.5276L5.35992 6.6456ZM13.2446 11.5866C12.8126 12.1806 12.2066 12.4776 11.4266 12.4776C10.6526 12.4776 10.0436 12.1806 9.59955 11.5866C9.16755 10.9926 8.95155 10.2006 8.95155 9.2106C8.95155 8.2206 9.16755 7.4286 9.59955 6.8346C10.0436 6.2406 10.6526 5.9436 11.4266 5.9436C12.2066 5.9436 12.8126 6.2406 13.2446 6.8346C13.6826 7.4226 13.9016 8.2146 13.9016 9.2106C13.9016 10.2066 13.6826 10.9986 13.2446 11.5866ZM11.4266 11.4696C11.8946 11.4696 12.2516 11.2746 12.4976 10.8846C12.7436 10.4946 12.8666 9.9366 12.8666 9.2106C12.8666 8.4846 12.7436 7.9266 12.4976 7.5366C12.2516 7.1466 11.8946 6.9516 11.4266 6.9516C10.9646 6.9516 10.6076 7.1466 10.3556 7.5366C10.1096 7.9266 9.98655 8.4846 9.98655 9.2106C9.98655 9.9366 10.1096 10.4946 10.3556 10.8846C10.6076 11.2746 10.9646 11.4696 11.4266 11.4696ZM18.9135 11.5866C18.4815 12.1806 17.8755 12.4776 17.0955 12.4776C16.3215 12.4776 15.7125 12.1806 15.2685 11.5866C14.8365 10.9926 14.6205 10.2006 14.6205 9.2106C14.6205 8.2206 14.8365 7.4286 15.2685 6.8346C15.7125 6.2406 16.3215 5.9436 17.0955 5.9436C17.8755 5.9436 18.4815 6.2406 18.9135 6.8346C19.3515 7.4226 19.5705 8.2146 19.5705 9.2106C19.5705 10.2066 19.3515 10.9986 18.9135 11.5866ZM17.0955 11.4696C17.5635 11.4696 17.9205 11.2746 18.1665 10.8846C18.4125 10.4946 18.5355 9.9366 18.5355 9.2106C18.5355 8.4846 18.4125 7.9266 18.1665 7.5366C17.9205 7.1466 17.5635 6.9516 17.0955 6.9516C16.6335 6.9516 16.2765 7.1466 16.0245 7.5366C15.7785 7.9266 15.6555 8.4846 15.6555 9.2106C15.6555 9.9366 15.7785 10.4946 16.0245 10.8846C16.2765 11.2746 16.6335 11.4696 17.0955 11.4696ZM24.0784 8.5266V7.8606H25.0324V12.1536C25.0324 12.8376 24.8074 13.3626 24.3574 13.7286C23.9134 14.0946 23.3674 14.2776 22.7194 14.2776C21.6814 14.2776 20.9704 13.9146 20.5864 13.1886L21.4234 12.7026C21.6574 13.1646 22.0954 13.3956 22.7374 13.3956C23.1574 13.3956 23.4844 13.2846 23.7184 13.0626C23.9584 12.8466 24.0784 12.5436 24.0784 12.1536V11.6046C23.7124 12.1266 23.1904 12.3876 22.5124 12.3876C21.8824 12.3876 21.3454 12.1626 20.9014 11.7126C20.4634 11.2566 20.2444 10.7076 20.2444 10.0656C20.2444 9.4176 20.4634 8.8716 20.9014 8.4276C21.3394 7.9716 21.8764 7.7436 22.5124 7.7436C23.1904 7.7436 23.7124 8.0046 24.0784 8.5266ZM21.6214 11.0736C21.8974 11.3436 22.2394 11.4786 22.6474 11.4786C23.0554 11.4786 23.3944 11.3436 23.6644 11.0736C23.9404 10.8036 24.0784 10.4676 24.0784 10.0656C24.0784 9.6636 23.9404 9.3276 23.6644 9.0576C23.3944 8.7876 23.0554 8.6526 22.6474 8.6526C22.2394 8.6526 21.8974 8.7876 21.6214 9.0576C21.3514 9.3276 21.2164 9.6636 21.2164 10.0656C21.2164 10.4676 21.3514 10.8036 21.6214 11.0736ZM27.1374 7.8606V8.6166C27.3834 8.0586 27.8454 7.7796 28.5234 7.7796V8.8326C28.1574 8.8086 27.8334 8.8986 27.5514 9.1026C27.2754 9.3006 27.1374 9.6306 27.1374 10.0926V12.3606H26.1654V7.8606H27.1374Z" fill="#7C7C7C"/>
</svg>
